<svg xmlns="http://www.w3.org/2000/svg" width="167" height="40" fill="none"><path fill="#DCF247" d="M20 1.25C9.652 1.25 1.25 9.65 1.25 20c0 10.347 8.402 18.75 18.75 18.75S38.75 30.346 38.75 20c0-2.877-.65-5.602-1.81-8.04l-1.862 1.862c-.351.354-.83.553-1.33.553h-.517A14.3 14.3 0 0 1 34.376 20c0 7.932-6.444 14.376-14.376 14.376S5.624 27.931 5.624 20 12.068 5.623 20 5.623c1.996 0 3.897.408 5.625 1.145V6.25c0-.498.2-.977.553-1.329l1.86-1.861A18.66 18.66 0 0 0 20 1.25m11.858 0a.63.63 0 0 0-.425.183L27.06 5.807a.63.63 0 0 0-.184.443v4.118l-8.253 8.253a1.96 1.96 0 0 0 0 2.76c.756.756 2 .753 2.756-.005l8.252-8.252h4.119a.63.63 0 0 0 .443-.184l4.374-4.374a.626.626 0 0 0-.443-1.065h-2.87l.499-.498c.756-.757.76-2 .004-2.757a1.95 1.95 0 0 0-1.38-.567c-.502 0-1.002.189-1.38.567l-.497.497V1.871a.626.626 0 0 0-.641-.622M20 9.996c-5.515 0-10.002 4.487-10.002 10.002S14.485 29.997 20 29.997s9.998-4.482 9.998-9.998a9.9 9.9 0 0 0-1.045-4.429l-3.424 3.424c.059.327.095.662.095 1.005 0 3.1-2.525 5.624-5.624 5.624a5.63 5.63 0 0 1-5.624-5.624c0-3.099 2.525-5.624 5.624-5.624.343 0 .678.036 1.005.096l3.425-3.426A9.9 9.9 0 0 0 20 9.997"/><path fill="#fff" d="M59.33 31.36q-1.59 0-2.97-.39t-2.46-1.08a8.3 8.3 0 0 1-1.8-1.59q-.69-.87-.9-1.83l4.02-1.2q.39 1.02 1.38 1.77.99.72 2.49.75 1.59.03 2.58-.69 1.02-.72 1.02-1.86 0-.99-.81-1.65-.78-.69-2.16-1.05l-2.73-.72q-1.53-.39-2.7-1.17-1.17-.81-1.83-1.98t-.66-2.73q0-2.97 1.95-4.62 1.98-1.68 5.58-1.68 2.01 0 3.51.6 1.53.57 2.55 1.65t1.56 2.55l-3.99 1.23q-.36-1.02-1.32-1.74t-2.43-.72q-1.5 0-2.37.69-.84.69-.84 1.95 0 .99.66 1.56.69.57 1.86.87l2.76.69q2.7.66 4.2 2.37t1.5 3.81q0 1.86-.9 3.27-.9 1.38-2.61 2.16t-4.14.78M69.603 31V10h13.29v3.75h-9.18v4.77h7.92v3.66h-7.92v5.07h9.3V31zm26.366.36q-3.18 0-5.64-1.38-2.43-1.41-3.81-3.84-1.38-2.46-1.38-5.61 0-3.21 1.38-5.64 1.38-2.46 3.78-3.84 2.43-1.38 5.58-1.38 3.18 0 5.58 1.41 2.43 1.38 3.81 3.84 1.38 2.43 1.38 5.61 0 3.15-1.38 5.61a9.96 9.96 0 0 1-3.78 3.84q-2.4 1.38-5.52 1.38m0-3.75q1.92 0 3.36-.9a6.3 6.3 0 0 0 2.28-2.52q.84-1.59.84-3.66 0-2.1-.84-3.69t-2.31-2.49q-1.47-.93-3.42-.93-1.89 0-3.39.93-1.47.9-2.31 2.49t-.84 3.69q0 2.07.84 3.66t2.34 2.52q1.5.9 3.45.9M109.082 31V10h4.29l10.26 14.1V10h4.08v21h-4.08l-10.44-14.37V31zm22.303 0V10h13.29v3.75h-9.18v4.77h7.92v3.66h-7.92v5.07h9.3V31zm14.786 0 8.13-11.49 6.6-9.51h4.89l-7.95 10.92-6.72 10.08zm14.82 0-6.72-10.08-7.95-10.92h4.89l6.6 9.48 8.13 11.52z"/></svg>