<svg xmlns="http://www.w3.org/2000/svg" width="211" height="50" fill="none"><path fill="#6432FF" d="M25 1.561C12.065 1.561 1.563 12.064 1.563 25S12.065 48.436 25 48.436 48.438 37.934 48.438 25c0-3.595-.814-7.002-2.263-10.048l-2.327 2.327a2.35 2.35 0 0 1-1.662.69h-.647a17.9 17.9 0 0 1 1.431 7.03c0 9.915-8.055 17.97-17.97 17.97S7.03 34.914 7.03 24.999 15.085 7.029 25 7.029c2.495 0 4.87.51 7.031 1.432v-.647c0-.624.25-1.223.691-1.662l2.326-2.327A23.3 23.3 0 0 0 25 1.561m14.822 0a.78.78 0 0 0-.53.23L33.823 7.26a.78.78 0 0 0-.23.554v5.146L23.277 23.276a2.45 2.45 0 0 0 0 3.45c.946.946 2.5.941 3.446-.006l10.315-10.315h5.148a.78.78 0 0 0 .554-.23l5.467-5.468a.781.781 0 0 0-.554-1.332h-3.586l.623-.622c.946-.946.95-2.5.005-3.446a2.43 2.43 0 0 0-1.726-.71 2.43 2.43 0 0 0-1.724.71l-.621.621v-3.59a.78.78 0 0 0-.802-.777M25 12.496c-6.894 0-12.503 5.608-12.503 12.503 0 6.894 5.609 12.497 12.503 12.497s12.497-5.603 12.497-12.497c0-1.99-.477-3.865-1.306-5.536l-4.28 4.28c.074.408.119.827.119 1.256 0 3.874-3.156 7.03-7.03 7.03s-7.03-3.156-7.03-7.03 3.156-7.03 7.03-7.03c.43 0 .848.045 1.256.119l4.281-4.282A12.4 12.4 0 0 0 25 12.496"/><path fill="#090705" d="M72.44 39.48q-2.12 0-3.96-.52t-3.28-1.44q-1.44-.96-2.4-2.12-.92-1.16-1.2-2.44l5.36-1.6q.52 1.36 1.84 2.36 1.32.96 3.32 1 2.12.04 3.44-.92 1.36-.96 1.36-2.48 0-1.32-1.08-2.2-1.04-.92-2.88-1.4l-3.64-.96q-2.04-.52-3.6-1.56-1.56-1.08-2.44-2.64t-.88-3.64q0-3.96 2.6-6.16 2.64-2.24 7.44-2.24 2.68 0 4.68.8 2.04.76 3.4 2.2t2.08 3.4l-5.32 1.64q-.48-1.36-1.76-2.32t-3.24-.96q-2 0-3.16.92-1.12.92-1.12 2.6 0 1.32.88 2.08.92.76 2.48 1.16l3.68.92q3.6.88 5.6 3.16t2 5.08q0 2.48-1.2 4.36-1.2 1.84-3.48 2.88t-5.52 1.04M85.337 39V11h17.72v5h-12.24v6.36h10.56v4.88h-10.56V34h12.4v5zm34.355.48q-4.24 0-7.52-1.84a13.57 13.57 0 0 1-5.08-5.12q-1.84-3.28-1.84-7.48 0-4.28 1.84-7.52 1.839-3.28 5.04-5.12 3.24-1.84 7.44-1.84 4.239 0 7.44 1.88 3.24 1.84 5.08 5.12 1.84 3.24 1.84 7.48 0 4.2-1.84 7.48-1.8 3.24-5.04 5.12-3.2 1.84-7.36 1.84m0-5q2.56 0 4.48-1.2 1.96-1.24 3.04-3.36 1.12-2.12 1.12-4.88 0-2.8-1.12-4.92t-3.08-3.32q-1.96-1.24-4.56-1.24-2.52 0-4.52 1.24-1.96 1.2-3.08 3.32t-1.12 4.92q0 2.76 1.12 4.88a8.6 8.6 0 0 0 3.12 3.36q2 1.2 4.6 1.2M136.376 39V11h5.72l13.68 18.8V11h5.44v28h-5.44l-13.92-19.16V39zm28.937 0V11h17.72v5h-12.24v6.36h10.56v4.88h-10.56V34h12.4v5zm18.915 0 10.84-15.32 8.8-12.68h6.52l-10.6 14.56-8.96 13.44zm19.76 0-8.96-13.44-10.6-14.56h6.52l8.8 12.64L210.588 39z"/></svg>