<svg xmlns="http://www.w3.org/2000/svg" width="147" height="36" fill="none"><path fill="#BBFB00" d="M18 1.124C8.687 1.124 1.125 8.686 1.125 18S8.687 34.874 18 34.874 34.875 27.312 34.875 18c0-2.588-.586-5.041-1.63-7.234L31.57 12.44a1.7 1.7 0 0 1-1.196.498h-.466a12.9 12.9 0 0 1 1.03 5.061c0 7.139-5.8 12.939-12.938 12.939s-12.939-5.8-12.939-12.939c0-7.138 5.8-12.938 12.939-12.938 1.796 0 3.507.367 5.063 1.03v-.466c0-.448.179-.88.497-1.196l1.675-1.675A16.8 16.8 0 0 0 18 1.124m10.672 0a.56.56 0 0 0-.382.166l-3.937 3.936a.56.56 0 0 0-.166.4V9.33l-7.427 7.428c-.681.68-.681 1.803 0 2.484.68.68 1.8.678 2.48-.004l7.427-7.427h3.707a.56.56 0 0 0 .399-.166l3.936-3.936a.562.562 0 0 0-.399-.96h-2.582l.449-.448c.68-.68.684-1.8.003-2.48-.34-.34-.792-.511-1.242-.511-.451 0-.901.17-1.242.51l-.447.448V1.684a.563.563 0 0 0-.577-.56M18 8.997c-4.964 0-9.002 4.038-9.002 9.002s4.038 8.998 9.002 8.998 8.998-4.034 8.998-8.998a8.94 8.94 0 0 0-.94-3.986l-3.082 3.082c.053.294.085.595.085.904A5.07 5.07 0 0 1 18 23.061a5.07 5.07 0 0 1-5.061-5.062A5.07 5.07 0 0 1 18 12.938c.309 0 .61.032.904.085l3.083-3.082A8.9 8.9 0 0 0 18 8.997"/><path fill="#fff" d="M54.086 27.812a9.4 9.4 0 0 1-2.574-.338 8 8 0 0 1-2.132-.936 7.2 7.2 0 0 1-1.56-1.378q-.598-.754-.78-1.586l3.484-1.04q.338.884 1.196 1.534.858.624 2.158.65 1.378.026 2.236-.598.885-.624.884-1.612 0-.858-.702-1.43-.676-.598-1.872-.91l-2.366-.624q-1.326-.338-2.34-1.014a5.16 5.16 0 0 1-1.586-1.716q-.572-1.014-.572-2.366 0-2.573 1.69-4.004 1.716-1.455 4.836-1.456 1.741 0 3.042.52 1.326.495 2.21 1.43.885.935 1.352 2.21l-3.458 1.066q-.312-.885-1.144-1.508-.833-.624-2.106-.624-1.3 0-2.054.598-.728.598-.728 1.69 0 .858.572 1.352.598.494 1.612.754l2.392.598q2.34.572 3.64 2.054t1.3 3.302q0 1.613-.78 2.834-.78 1.195-2.262 1.872-1.482.675-3.588.676m8.903-.312V9.3h11.518v3.25h-7.956v4.134h6.864v3.172h-6.864v4.394h8.06v3.25zm22.85.312q-2.755 0-4.888-1.196a8.8 8.8 0 0 1-3.301-3.328q-1.197-2.132-1.197-4.862 0-2.782 1.197-4.888a8.64 8.64 0 0 1 3.275-3.328q2.106-1.196 4.837-1.196 2.756 0 4.835 1.222a8.6 8.6 0 0 1 3.303 3.328q1.195 2.106 1.195 4.862 0 2.73-1.195 4.862a8.63 8.63 0 0 1-3.276 3.328q-2.08 1.196-4.784 1.196m0-3.25q1.665 0 2.912-.78a5.47 5.47 0 0 0 1.977-2.184q.728-1.378.728-3.172 0-1.82-.728-3.198a5.47 5.47 0 0 0-2.002-2.158q-1.275-.806-2.965-.806-1.636 0-2.937.806a5.47 5.47 0 0 0-2.002 2.158q-.728 1.379-.728 3.198 0 1.794.728 3.172a5.6 5.6 0 0 0 2.028 2.184q1.3.78 2.99.78M97.205 27.5V9.3h3.718l8.892 12.22V9.3h3.536v18.2h-3.536l-9.048-12.454V27.5zm19.33 0V9.3h11.518v3.25h-7.956v4.134h6.864v3.172h-6.864v4.394h8.06v3.25zm12.814 0 7.046-9.958 5.72-8.242h4.238l-6.89 9.464-5.824 8.736zm12.844 0-5.824-8.736-6.89-9.464h4.238l5.72 8.216 7.046 9.984z"/></svg>