<svg xmlns="http://www.w3.org/2000/svg" width="65" height="65" fill="none"><path fill="#DCF247" d="M10.833 21.667C4.853 21.667 0 16.817 0 10.833 0 4.85 4.852 0 10.833 0c5.983 0 10.833 4.85 10.833 10.833S26.518 21.667 32.5 21.667s10.833-4.85 10.833-10.833S48.185 0 54.167 0 65 4.85 65 10.833s-4.85 10.833-10.833 10.833c-17.951 0-32.5 14.555-32.5 32.5 0 5.98-4.85 10.833-10.833 10.833S0 60.15 0 54.167s4.85-10.834 10.833-10.834 10.832-4.85 10.832-10.833c0-5.982-4.849-10.833-10.832-10.833"/><path fill="#DCF247" d="M29.792 47.396c0-9.729 7.88-17.605 17.604-17.605C57.121 29.792 65 37.667 65 47.396 65 57.119 57.121 65 47.396 65s-17.604-7.881-17.604-17.604"/></svg>