<svg xmlns="http://www.w3.org/2000/svg" width="55" height="55" fill="none"><path fill="#fff" d="M9.166 18.334a9.167 9.167 0 1 1 9.166-9.167 9.167 9.167 0 0 0 18.334 0 9.167 9.167 0 1 1 9.167 9.166c-15.19 0-27.5 12.316-27.5 27.5 0 5.06-4.104 9.166-9.166 9.166S0 50.896 0 45.833a9.17 9.17 0 0 1 9.166-9.167 9.166 9.166 0 0 0 9.166-9.166 9.166 9.166 0 0 0-9.166-9.166"/><path fill="#fff" d="M25.209 40.104c0-8.231 6.667-14.896 14.896-14.896C48.333 25.208 55 31.873 55 40.104 55 48.33 48.333 55 40.104 55s-14.895-6.669-14.895-14.896"/></svg>