<svg xmlns="http://www.w3.org/2000/svg" width="38" height="38" fill="none"><path fill="#DCF247" d="M18.75.001C8.402.001 0 8.403 0 18.751s8.402 18.75 18.75 18.75S37.5 29.1 37.5 18.751c0-2.876-.65-5.601-1.81-8.038l-1.862 1.862c-.351.353-.83.552-1.33.552h-.517a14.3 14.3 0 0 1 1.145 5.624c0 7.932-6.444 14.376-14.376 14.376S4.374 26.683 4.374 18.751 10.818 4.375 18.75 4.375c1.996 0 3.897.408 5.625 1.145v-.518c0-.498.2-.977.553-1.329l1.86-1.861A18.66 18.66 0 0 0 18.75.002m11.858 0a.63.63 0 0 0-.425.184L25.81 4.56a.63.63 0 0 0-.184.443V9.12l-8.253 8.253a1.96 1.96 0 0 0 0 2.76c.756.757 2 .753 2.756-.005l8.252-8.252H32.5a.63.63 0 0 0 .443-.184l4.374-4.374a.626.626 0 0 0-.443-1.065h-2.87l.499-.498c.756-.757.76-2 .004-2.757a1.95 1.95 0 0 0-1.38-.567c-.502 0-1.002.189-1.38.567l-.497.497V.623A.626.626 0 0 0 30.608 0M18.75 8.75c-5.515 0-10.002 4.487-10.002 10.002s4.487 9.998 10.002 9.998 9.998-4.482 9.998-9.998a9.9 9.9 0 0 0-1.045-4.429l-3.424 3.425c.059.326.095.661.095 1.004 0 3.1-2.525 5.624-5.624 5.624a5.63 5.63 0 0 1-5.624-5.624c0-3.099 2.525-5.624 5.624-5.624.343 0 .678.036 1.005.096l3.425-3.426a9.9 9.9 0 0 0-4.43-1.048"/></svg>