<svg xmlns="http://www.w3.org/2000/svg" width="36" height="36" fill="none"><path fill="#BBFB00" d="M18 1.124C8.687 1.124 1.125 8.686 1.125 18S8.687 34.874 18 34.874 34.875 27.312 34.875 18c0-2.588-.586-5.041-1.63-7.234L31.57 12.44a1.7 1.7 0 0 1-1.196.498h-.466a12.9 12.9 0 0 1 1.03 5.061c0 7.139-5.8 12.939-12.938 12.939s-12.939-5.8-12.939-12.939c0-7.138 5.8-12.938 12.939-12.938 1.796 0 3.507.367 5.063 1.03v-.466c0-.448.179-.88.497-1.196l1.675-1.675A16.8 16.8 0 0 0 18 1.124m10.672 0a.56.56 0 0 0-.382.166l-3.937 3.936a.56.56 0 0 0-.166.4V9.33l-7.427 7.428c-.681.68-.681 1.803 0 2.484.68.68 1.8.678 2.48-.004l7.427-7.427h3.707a.56.56 0 0 0 .399-.166l3.936-3.936a.562.562 0 0 0-.399-.96h-2.582l.449-.448c.68-.68.684-1.8.003-2.48-.34-.34-.792-.511-1.242-.511-.451 0-.901.17-1.242.51l-.447.448V1.684a.563.563 0 0 0-.577-.56M18 8.997c-4.964 0-9.002 4.038-9.002 9.002s4.038 8.998 9.002 8.998 8.998-4.034 8.998-8.998a8.94 8.94 0 0 0-.94-3.986l-3.082 3.082c.053.294.085.595.085.904A5.07 5.07 0 0 1 18 23.061a5.07 5.07 0 0 1-5.061-5.062A5.07 5.07 0 0 1 18 12.938c.309 0 .61.032.904.085l3.083-3.082A8.9 8.9 0 0 0 18 8.997"/></svg>