<svg xmlns="http://www.w3.org/2000/svg" width="40" height="40" fill="none"><path fill="#6432FF" d="M20 1.25C9.652 1.25 1.25 9.65 1.25 20c0 10.347 8.402 18.75 18.75 18.75S38.75 30.346 38.75 20c0-2.877-.65-5.602-1.81-8.04l-1.862 1.862c-.351.354-.83.553-1.33.553h-.517A14.3 14.3 0 0 1 34.376 20c0 7.932-6.444 14.376-14.376 14.376S5.624 27.931 5.624 20 12.068 5.623 20 5.623c1.996 0 3.897.408 5.625 1.145V6.25c0-.498.2-.977.553-1.329l1.86-1.861A18.66 18.66 0 0 0 20 1.25m11.858 0a.63.63 0 0 0-.425.183L27.06 5.807a.63.63 0 0 0-.184.443v4.118l-8.253 8.253a1.96 1.96 0 0 0 0 2.76c.756.756 2 .753 2.756-.005l8.252-8.252h4.119a.63.63 0 0 0 .443-.184l4.374-4.374a.626.626 0 0 0-.443-1.065h-2.87l.499-.498c.756-.757.76-2 .004-2.757a1.95 1.95 0 0 0-1.38-.567c-.502 0-1.002.189-1.38.567l-.497.497V1.871a.626.626 0 0 0-.641-.622M20 9.996c-5.515 0-10.002 4.487-10.002 10.002S14.485 29.997 20 29.997s9.998-4.482 9.998-9.998a9.9 9.9 0 0 0-1.045-4.429l-3.424 3.424c.059.327.095.662.095 1.005 0 3.1-2.525 5.624-5.624 5.624a5.63 5.63 0 0 1-5.624-5.624c0-3.099 2.525-5.624 5.624-5.624.343 0 .678.036 1.005.096l3.425-3.426A9.9 9.9 0 0 0 20 9.997"/></svg>