<svg xmlns="http://www.w3.org/2000/svg" width="97" height="24" fill="none"><g fill="#696969" fill-rule="evenodd" clip-path="url(#a)" clip-rule="evenodd"><path d="m2.692 13.903 5.506-9.51a2.58 2.58 0 0 1-.721-1.794A2.604 2.604 0 0 1 10.083 0a2.604 2.604 0 0 1 2.606 2.599c0 .695-.274 1.328-.721 1.793l5.51 9.511h.086a2.603 2.603 0 0 1 2.606 2.598 2.604 2.604 0 0 1-2.606 2.599 2.604 2.604 0 0 1-2.606-2.599c0-.504.145-.976.396-1.375l-5.271-9.105-5.267 9.101c.25.399.396.868.396 1.376a2.604 2.604 0 0 1-2.606 2.598A2.604 2.604 0 0 1 0 16.498a2.604 2.604 0 0 1 2.692-2.595m14.785-3.802h.087a2.603 2.603 0 0 0 2.606-2.599 2.604 2.604 0 0 0-2.606-2.598 2.604 2.604 0 0 0-2.606 2.598c0 .505.145.977.396 1.376l-.04.07 1.415 2.442zm-2.868 4.95-1.415-2.441-3.107 5.369-3.112-5.37-1.414 2.443 2.64 4.56a2.58 2.58 0 0 0-.72 1.793 2.604 2.604 0 0 0 2.606 2.599 2.604 2.604 0 0 0 2.606-2.599c0-.695-.275-1.328-.721-1.793zM3.441 11.395l1.414-2.442-.039-.07c.25-.399.396-.868.396-1.376a2.604 2.604 0 0 0-2.606-2.598A2.6 2.6 0 0 0 0 7.506a2.604 2.604 0 0 0 2.606 2.599h.086zM34.175 17.103l-.76-1.837h-5.04l-.76 1.837h-2.559L29.646 6.9h2.558l4.561 10.203zM30.92 9.186l-1.681 4.021h3.33zM43.557 6.9h2.649l-4.213 10.203h-2.527L35.257 6.9h2.645l1.376 3.47 1.446 3.963L42.2 10.37zM49.313 15.09h5.643v2.013h-7.967V6.9h7.806v1.997h-5.482v2.067H54.5v1.927h-5.188zM60.258 13.735h-1.387v3.368h-2.398V6.9h4.984q1.11.001 1.944.43a3.06 3.06 0 0 1 1.285 1.215q.454.786.455 1.806-.001 1.165-.608 1.996-.605.83-1.716 1.18l2.896 3.572h-2.849zm2.516-3.353q.001-.687-.415-1.063-.418-.38-1.176-.379h-2.324v2.872h2.324q.775-.001 1.183-.371.406-.374.408-1.059M70.592 13.735h-1.387v3.368h-2.398V6.9h4.984q1.11.001 1.944.43a3.06 3.06 0 0 1 1.285 1.215q.454.786.455 1.806-.001 1.165-.608 1.996-.605.83-1.716 1.18l2.896 3.572h-2.85zm2.512-3.353q.001-.687-.415-1.063-.418-.38-1.176-.379h-2.324v2.872h2.324q.774-.001 1.183-.371c.275-.25.408-.602.408-1.059M82.003 17.35q-1.652-.001-2.9-.665a4.66 4.66 0 0 1-1.927-1.872c-.455-.805-.678-1.742-.678-2.813 0-1.07.227-2.005.677-2.813a4.7 4.7 0 0 1 1.928-1.872q1.251-.663 2.9-.664 1.654 0 2.9.664a4.66 4.66 0 0 1 1.928 1.872c.455.805.678 1.742.678 2.813 0 1.07-.227 2.005-.678 2.813a4.7 4.7 0 0 1-1.928 1.872c-.83.446-1.799.664-2.9.664m0-2.126c.616 0 1.156-.133 1.63-.403a2.75 2.75 0 0 0 1.098-1.13q.387-.728.388-1.691 0-.96-.388-1.692a2.75 2.75 0 0 0-1.097-1.13c-.475-.265-1.015-.402-1.63-.402q-.924-.001-1.623.403a2.8 2.8 0 0 0-1.09 1.129q-.387.729-.387 1.692 0 .96.388 1.692.388.73 1.089 1.13c.47.265 1.011.402 1.622.402M92.685 17.334a7.7 7.7 0 0 1-2.418-.38q-1.164-.378-2.01-1.062l1.242-1.735q1.36 1.062 3.17 1.063.908 0 1.439-.305.533-.304.532-.832c0-.332-.164-.587-.497-.774q-.498-.276-1.58-.395-2.09-.233-3.06-.977c-.647-.496-.972-1.203-.972-2.13 0-.62.177-1.171.525-1.644q.527-.714 1.478-1.106.951-.394 2.19-.395a7.2 7.2 0 0 1 2.081.305 6.1 6.1 0 0 1 1.791.86l-1.125 1.676a4.54 4.54 0 0 0-2.645-.832q-.892 0-1.426.293t-.533.785q0 .48.462.743c.306.175.823.304 1.54.394q2.077.234 3.1 1.028c.682.531 1.023 1.254 1.023 2.18q0 .962-.541 1.7-.54.739-1.52 1.137-.97.404-2.246.403"/></g><defs><clipPath id="a"><path fill="#fff" d="M0 0h97v24H0z"/></clipPath></defs></svg>