<svg xmlns="http://www.w3.org/2000/svg" width="86" height="24" fill="none"><g fill="#696969" clip-path="url(#a)"><path d="M15.743 20.127h-4.65a5.05 5.05 0 0 0 3.554-1.462 5.04 5.04 0 0 0 1.466-3.55c0-2.764-2.248-4.997-5.02-4.997a5.05 5.05 0 0 0 3.554-1.462 5.06 5.06 0 0 0 1.458-3.278c.137-2.506-1.764-4.643-4.19-5.157a6.4 6.4 0 0 1 1.25-.12h2.304c2.908 0 5.446 2.393 5.293 5.277a5 5 0 0 1-1.466 3.278 5.06 5.06 0 0 1-3.553 1.462c2.772 0 5.02 2.233 5.02 4.996 0 1.39-.565 2.635-1.467 3.551a5.06 5.06 0 0 1-3.553 1.462"/><path d="M13.366 20.127h-2.272a5.05 5.05 0 0 0 3.553-1.462 5.04 5.04 0 0 0 1.466-3.55c0-2.764-2.248-4.997-5.02-4.997a5.05 5.05 0 0 0 3.554-1.462 5.06 5.06 0 0 0 1.458-3.278c.137-2.506-1.764-4.643-4.19-5.157a6.4 6.4 0 0 1 1.25-.12c2.884.04 5.374 2.417 5.212 5.277a5.05 5.05 0 0 1-1.45 3.278 5.07 5.07 0 0 1-3.561 1.462c2.78 0 5.027 2.233 5.027 4.996 0 1.39-.564 2.635-1.466 3.551a5.06 5.06 0 0 1-3.561 1.462"/><path d="M4.368 23.993c-.84-.052-1.667-.398-2.338-.915-1.689-1.3-2.417-3.714-1.729-5.728.689-2.014 2.743-3.482 4.878-3.484-2.514 0-4.857-2.082-5.148-4.57-.291-2.49 1.51-5.053 3.956-5.63.86-.203 1.77-.186 2.61-.46 1.105-.361 1.981-1.185 2.885-1.913 1.62-1.306 3.249-1.826 5.07-.594 1.514 1.025 2.516 2.856 2.371 4.699-.2 2.55-2.57 4.74-5.134 4.75 2.533.007 4.885 2.125 5.149 4.637s-1.597 5.07-4.073 5.601c-.821.176-1.683.153-2.482.41-1.925.617-3.143 2.726-5.123 3.136q-.444.09-.892.061M26.8 14.812q-.89-.405-1.408-1.102a2.74 2.74 0 0 1-.552-1.559h2.038q.051.604.578 1.008.528.405 1.322.405.83 0 1.287-.318.457-.319.457-.819 0-.534-.51-.792-.508-.258-1.614-.569a16 16 0 0 1-1.745-.567 3.06 3.06 0 0 1-1.165-.844q-.492-.569-.493-1.498 0-.759.45-1.387.449-.63 1.286-.99t1.926-.361q1.623 0 2.616.817.994.82 1.063 2.231h-1.969q-.051-.638-.518-1.016-.466-.379-1.26-.38-.778.001-1.193.293-.414.294-.415.775 0 .38.277.638.276.258.674.405.397.145 1.174.37 1.036.275 1.701.559t1.149.835q.484.552.5 1.465 0 .81-.448 1.446-.45.638-1.27 1-.82.36-1.926.361-1.122 0-2.012-.406M36.275 14.605a4.4 4.4 0 0 1-1.71-1.72q-.622-1.113-.622-2.575 0-1.448.639-2.566a4.4 4.4 0 0 1 1.744-1.723q1.105-.603 2.47-.602 1.365 0 2.47.602a4.4 4.4 0 0 1 1.745 1.723q.638 1.118.639 2.566-.001 1.446-.656 2.564a4.53 4.53 0 0 1-1.788 1.731 5.16 5.16 0 0 1-2.496.613q-1.347 0-2.435-.613m3.86-1.454a2.76 2.76 0 0 0 1.08-1.085q.414-.724.414-1.756 0-1.035-.397-1.749a2.7 2.7 0 0 0-1.053-1.076 2.9 2.9 0 0 0-1.417-.362q-.76 0-1.407.362-.649.361-1.028 1.076-.38.715-.38 1.749 0 1.532.786 2.367.786.836 1.978.835.759 0 1.424-.361M49.591 7.175H47.83v7.887h-1.987V7.175H44.72V5.574h1.123v-.672q0-1.635.872-2.385t2.738-.748v1.635q-.898 0-1.26.336-.364.335-.363 1.162v.672h1.761zM53.633 7.175v5.253q0 .533.25.766t.855.233h1.209v1.635h-1.555q-1.33 0-2.038-.62t-.708-2.015V7.175h-1.123V5.574h1.123v-2.36h1.987v2.36h2.314v1.601zM61.103 5.858q.873-.44 1.943-.439 1.26 0 2.28.603 1.02.602 1.607 1.712.587 1.112.587 2.54 0 1.43-.587 2.558a4.4 4.4 0 0 1-1.616 1.756 4.27 4.27 0 0 1-2.271.63q-1.105 0-1.96-.432-.855-.43-1.356-1.101v1.377h-1.97V2.319h1.97v4.667q.5-.69 1.373-1.128m4.007 2.721a2.8 2.8 0 0 0-1.07-1.086 2.9 2.9 0 0 0-1.426-.37q-.743 0-1.407.38-.666.379-1.072 1.101-.405.723-.405 1.706 0 .98.405 1.712a2.81 2.81 0 0 0 3.905 1.103q.664-.39 1.07-1.128.405-.74.406-1.723 0-.98-.406-1.695M69.41 7.744a4.36 4.36 0 0 1 1.624-1.714 4.36 4.36 0 0 1 2.271-.611q1.124 0 1.96.439.84.438 1.34 1.093V5.573h1.986v9.489h-1.986V13.65q-.501.671-1.365 1.12-.864.448-1.969.448-1.226 0-2.245-.63-1.02-.627-1.615-1.756-.597-1.128-.597-2.557t.597-2.531m6.789.86a2.84 2.84 0 0 0-1.063-1.101 2.8 2.8 0 0 0-1.416-.38q-.761 0-1.416.37A2.8 2.8 0 0 0 71.24 8.58q-.405.715-.406 1.696 0 .982.406 1.722t1.071 1.129q.665.386 1.408.386.76 0 1.416-.378t1.063-1.111q.405-.733.405-1.713 0-.983-.405-1.706M84.299 5.823q.717-.404 1.702-.404v2.032h-.502q-1.157 0-1.752.585-.596.585-.596 2.032v4.994h-1.97V5.573h1.97v1.378q.43-.723 1.148-1.128"/></g><defs><clipPath id="a"><path fill="#fff" d="M0 0h86v24H0z"/></clipPath></defs></svg>