<svg xmlns="http://www.w3.org/2000/svg" width="78" height="24" fill="none"><g fill="#696969" clip-path="url(#a)"><path fill-rule="evenodd" d="M12.403 6.435h1.106c.169 0 .307.138.307.306v1.102a.31.31 0 0 1-.307.307h-1.106a.31.31 0 0 1-.307-.307V6.741c0-.168.138-.306.307-.306m2.688.242h.542a.15.15 0 0 1 .151.15v.541a.15.15 0 0 1-.15.15h-.543a.15.15 0 0 1-.15-.15v-.54a.15.15 0 0 1 .15-.15M0 11.62v-4.9c0-.526.262-.979.72-1.242l4.588-2.64L9.896.198a1.41 1.41 0 0 1 1.439 0l4.588 2.64 4.55 2.618-7.315 4.209a.76.76 0 0 0-.707-.48H9.72a.76.76 0 0 0-.759.757v2.138l-2.702 1.555c-.44.253-.91.38-1.379.38s-.939-.127-1.378-.38z" clip-rule="evenodd"/><path fill-rule="evenodd" d="M14.611 10.638h1.297a.36.36 0 0 1 .36.359v1.293a.36.36 0 0 1-.36.359h-1.297a.36.36 0 0 1-.36-.36v-1.292a.36.36 0 0 1 .36-.36m-7.903 3.77 2.36-1.357a.76.76 0 0 0 .652.37h2.732a.76.76 0 0 0 .76-.756v-1.998l5.15-2.964 2.744-1.579q.123.273.124.596v5.65l-2.052 1.18-11.654 6.707c-1.162.67-2.494.67-3.656 0l-3.5-2.014A1.4 1.4 0 0 1 0 17.28v-4.627l3.052 1.756c1.162.67 2.494.67 3.656 0" clip-rule="evenodd"/><path fill-rule="evenodd" d="m7.524 20.257 11.655-6.706 2.051-1.18v4.909a1.4 1.4 0 0 1-.72 1.242l-4.587 2.64-4.588 2.64a1.41 1.41 0 0 1-1.44 0l-4.587-2.64-4.588-2.64a1.5 1.5 0 0 1-.352-.28l3.5 2.015c1.163.67 2.494.67 3.656 0" clip-rule="evenodd"/><path d="M76.245 13.996a1.27 1.27 0 0 1-.521 1.045 1.9 1.9 0 0 1-.58.292q-.332.105-.723.104-.56 0-.944-.26-.384-.259-.384-.752v-.026q0-.532.416-.818.417-.285 1.16-.285.455 0 .865.078t.71.195zm1.524 2.48v-4.063q0-1.377-.742-2.135-.743-.76-2.28-.76-.846 0-1.445.156t-1.172.416l.43 1.259q.468-.195.924-.312a4.2 4.2 0 0 1 1.042-.116q.82 0 1.257.376.436.377.436 1.09v.17a6.5 6.5 0 0 0-.84-.209 6 6 0 0 0-1.061-.078q-.599 0-1.114.137-.515.135-.885.409-.371.271-.58.688a2.15 2.15 0 0 0-.208.973v.026q0 .519.201.915.202.396.535.662.332.267.775.403t.937.136q.781 0 1.329-.285t.899-.701v.844zm-9.195-5.517h1.849V9.622h-1.85V7.74h-1.588v1.882h-.873v1.337h.873v3.617q0 .572.145.957.144.382.413.618.27.234.638.338.366.103.797.103.443 0 .781-.09.34-.091.638-.26v-1.285a2.16 2.16 0 0 1-.977.234q-.403 0-.625-.2-.22-.204-.221-.658zm-5.249 3.037a1.27 1.27 0 0 1-.52 1.045 1.9 1.9 0 0 1-.58.292q-.333.105-.723.104-.56 0-.945-.26-.384-.259-.384-.752v-.026q0-.532.417-.818t1.159-.285q.456 0 .866.078t.71.195zm1.524 2.48v-4.063q0-1.377-.742-2.135-.742-.76-2.28-.76-.845 0-1.445.156t-1.172.416l.43 1.259q.468-.195.924-.312a4.2 4.2 0 0 1 1.042-.116q.82 0 1.257.376.437.377.437 1.09v.17a6.5 6.5 0 0 0-.84-.209 6 6 0 0 0-1.062-.078q-.6 0-1.113.137-.515.135-.886.409-.37.271-.58.688a2.15 2.15 0 0 0-.208.973v.026q0 .519.202.915.203.396.534.662.333.267.775.403.444.136.938.136.78 0 1.328-.285.547-.285.9-.701v.844zm-9.299-3.427q0 .506-.163.908-.162.403-.434.694a1.898 1.898 0 0 1-1.39.604q-.402 0-.759-.155a1.95 1.95 0 0 1-1.057-1.136 2.6 2.6 0 0 1-.157-.915q0-.519.157-.928.155-.409.427-.695a1.9 1.9 0 0 1 .63-.435 1.95 1.95 0 0 1 1.513.007q.364.155.636.448.273.292.434.694.164.402.163.909m1.563 3.427V7h-1.588v3.686a3.8 3.8 0 0 0-.936-.844q-.56-.363-1.402-.363a3.1 3.1 0 0 0-1.19.234 2.9 2.9 0 0 0-1.02.694q-.441.46-.707 1.123-.267.661-.267 1.519 0 .856.274 1.519.272.66.714 1.123.442.46 1.014.694.57.234 1.183.234.829 0 1.395-.377.566-.376.942-.908v1.142zm-10.288-3.518 2.435-3.336h-1.68L45.99 11.88l-1.589-2.258h-1.718l2.435 3.375-2.527 3.478h1.68l1.68-2.401 1.694 2.401h1.72zm-9.924-.39q.103-.803.58-1.304.475-.5 1.204-.5.39 0 .697.143t.527.383q.222.24.352.57.13.332.169.708zm.013 1.04h5.053a4 4 0 0 0 .026-.43q0-.74-.209-1.414a3.5 3.5 0 0 0-.619-1.181 3 3 0 0 0-1.029-.805q-.618-.299-1.44-.299-.742 0-1.354.286t-1.061.772q-.45.488-.697 1.136a3.9 3.9 0 0 0-.247 1.388q0 .806.273 1.46.274.657.75 1.124.474.467 1.12.727.644.26 1.386.26.951 0 1.634-.351a3.8 3.8 0 0 0 1.179-.935l-.925-.817q-.416.402-.846.61a2.3 2.3 0 0 1-1.016.207q-.769 0-1.303-.448-.532-.447-.675-1.29m-4.95-.962v3.83h1.59V7.39h-1.59v3.777H27.59V7.39H26v9.086h1.589v-3.83z"/></g><defs><clipPath id="a"><path fill="#fff" d="M0 0h78v24H0z"/></clipPath></defs></svg>