<svg xmlns="http://www.w3.org/2000/svg" width="27" height="27" fill="none"><path fill="#fff" d="M21.624 9.317a9.97 9.97 0 0 1 1.247 4.84c0 5.528-4.498 10.026-10.027 10.026S2.817 19.685 2.817 14.156 7.315 4.13 12.844 4.13c1.71 0 3.32.43 4.73 1.189l2.066-2.065a12.76 12.76 0 0 0-6.796-1.94 12.76 12.76 0 0 0-9.082 3.761A12.76 12.76 0 0 0 0 14.156a12.76 12.76 0 0 0 3.762 9.082A12.76 12.76 0 0 0 12.844 27a12.76 12.76 0 0 0 9.082-3.762 12.76 12.76 0 0 0 3.762-9.082c0-2.482-.7-4.856-2.005-6.898z"/><path fill="#fff" d="M13.827 11.782a2.56 2.56 0 0 0-2.78.553c-1.001 1-1.001 2.615 0 3.607 1 1 2.613 1 3.606 0 .75-.75.932-1.856.553-2.78l7.327-7.328 1.22.16 3.228-3.228-2.44-.326L24.215 0l-3.228 3.235.16 1.22z"/><path fill="#fff" d="M17.622 13.318q.072.409.073.838a4.856 4.856 0 0 1-4.85 4.85 4.856 4.856 0 0 1-4.851-4.85 4.856 4.856 0 0 1 5.543-4.801l2.27-2.27a7.6 7.6 0 0 0-2.963-.597c-4.228 0-7.667 3.44-7.667 7.667s3.44 7.668 7.667 7.668 7.668-3.44 7.668-7.667a7.6 7.6 0 0 0-.647-3.081z"/></svg>