<svg xmlns="http://www.w3.org/2000/svg" width="50" height="50" fill="none"><g clip-path="url(#a)"><path fill="#6432FF" d="M9.766 11.035c0-1.079.874-1.953 1.953-1.953H38.28a1.953 1.953 0 1 1 0 3.906H11.72a1.953 1.953 0 0 1-1.953-1.953m30.468 7.813a1.953 1.953 0 0 0-1.953-1.953H11.72a1.953 1.953 0 1 0 0 3.906H38.28a1.953 1.953 0 0 0 1.953-1.953M11.72 24.707a1.953 1.953 0 1 0 0 3.906h8.984a1.953 1.953 0 1 0 0-3.906zm36.566 15.292a5.865 5.865 0 0 1-.001 8.285 5.84 5.84 0 0 1-4.143 1.713c-1.5 0-3.001-.571-4.143-1.713l-10.68-10.7a1.95 1.95 0 0 1-.5-.86l-2.184-7.882a1.953 1.953 0 0 1 2.45-2.39l7.687 2.335c.308.093.588.261.815.489zm-15.84-4.812 7.179 7.193 2.762-2.763-7.22-7.235-3.82-1.161zm13.077 7.573-.377-.378-2.762 2.763.378.378c.76.76 2 .76 2.76-.002.762-.76.762-2 0-2.761M42.188 0H7.813C3.505 0 0 3.505 0 7.813v34.375C0 46.495 3.505 50 7.813 50h23.925a1.953 1.953 0 1 0 0-3.906H7.813a3.91 3.91 0 0 1-3.907-3.907V7.813a3.91 3.91 0 0 1 3.907-3.907h34.375a3.91 3.91 0 0 1 3.906 3.907v24.023a1.953 1.953 0 1 0 3.906 0V7.813C50 3.505 46.495 0 42.188 0"/></g><defs><clipPath id="a"><path fill="#fff" d="M0 0h50v50H0z"/></clipPath></defs></svg>