<svg xmlns="http://www.w3.org/2000/svg" width="108" height="24" fill="none"><g clip-path="url(#a)"><path fill="#DCF247" d="m12.46 5.006.206.124 3.454 1.998.082.062h.021l.206.123-4.174 2.41-4.03 2.287h-.021l-3.99-2.307zM0 12.236l3.886 2.266.268.145 8.1 4.696V24l-4.153-2.43-3.947-2.308L0 16.831z"/><path fill="#DCF247" d="m4.215 9.703 3.99 2.307h.02l4.03 2.349 3.783 2.204.206.124.205.123.103.062 3.66 2.122.206 4.532-3.886-1.936-.206.123L12.276 24h-.021v-4.656l-8.101-4.697-.268-.144L0 12.237v-.124l4.154-2.369zM12.255.473l.206 4.533-8.246 4.697-.061-4.594L8.41 2.657z"/><path fill="#DCF247" d="M20.397 0h.021v4.656l8.101 4.697.268.144 3.886 2.266-4.154 2.493-.061.041-3.99-2.307h-.02l-4.03-2.349-3.763-2.204-.226-.124-.205-.123h-.021l-.082-.062-3.455-1.998-.206-.124-.205-4.532L16.14 2.41l.206-.123z"/><path fill="#DCF247" d="M24.448 11.99h.02l3.99 2.307-8.246 4.697-3.66-2.122-.103-.062-.205-.123 4.174-2.411zM20.418 0l4.154 2.43 3.947 2.308 4.154 2.431v4.594l-3.886-2.266-.268-.144-8.101-4.697zM16.12 7.128l.082.062-.082-.041z"/><path fill="#DCF247" d="m28.458 14.298.062.04v4.553l-4.257 2.452-3.845 2.184-.206-4.533zM16.552 16.873l3.475 1.998.185.124z"/><path fill="#fff" d="M58.647 8.045 54.795 21.24h-3.589l-2.4-9.217-2.401 9.217H42.79L38.916 8.045h3.376l2.329 10.051 2.52-10.05h3.518l2.472 10.026 2.33-10.027zM60.68 5.913q-.583-.558-.582-1.393 0-.834.582-1.393.58-.56 1.46-.56t1.463.56q.584.56.583 1.393 0 .834-.583 1.393-.582.56-1.462.56t-1.461-.56m3.101 2.132V21.24h-3.328V8.045zM74.337 21.24l-2.71-4.096-2.401 4.097H65.66l4.303-6.622-4.351-6.574h3.757l2.685 4.073 2.426-4.073h3.566L73.72 14.62l4.374 6.621zM83.229 3.615v17.626H79.9V3.615zM98.658 15.643h-9.629q.12 1.43.998 2.239.88.81 2.165.81 1.854 0 2.64-1.596h3.588q-.57 1.905-2.186 3.132-1.618 1.227-3.97 1.226-1.904 0-3.413-.845a5.94 5.94 0 0 1-2.353-2.394q-.844-1.548-.843-3.573-.001-2.047.832-3.597a5.8 5.8 0 0 1 2.329-2.381q1.497-.833 3.447-.834 1.877 0 3.363.81t2.306 2.298q.82 1.487.82 3.419.001.713-.094 1.286m-3.353-2.24q-.024-1.284-.927-2.059-.902-.774-2.211-.774-1.236 0-2.08.75t-1.033 2.084zM105.051 10.784v6.384q0 .666.322.965.32.297 1.081.297H108v2.811h-2.093q-4.209 0-4.208-4.096v-6.36h-1.569v-2.74h1.569V4.782h3.352v3.263H108v2.74z"/></g><defs><clipPath id="a"><path fill="#fff" d="M0 0h108v24H0z"/></clipPath></defs></svg>