<svg xmlns="http://www.w3.org/2000/svg" width="112" height="24" fill="none"><g clip-path="url(#a)"><path fill="#DCF247" fill-rule="evenodd" d="M3.49 14.255a8.6 8.6 0 0 1 8.527-7.437 8.6 8.6 0 0 1 7.004 3.6 8.6 8.6 0 0 1 1.286-1.428 8.82 8.82 0 0 0-8.29-5.795C7.147 3.195 3.2 7.137 3.2 12c0 .779.101 1.534.292 2.254m8.527-4.243a5.4 5.4 0 0 0-5.404 5.397 5.4 5.4 0 0 0 5.404 5.396h.116-.049a5.4 5.4 0 0 0 5.337-5.348v-.097a5.4 5.4 0 0 0-5.404-5.348m0 13.988C5.38 24 0 18.628 0 12S5.38 0 12.017 0c4.551 0 8.512 2.527 10.551 6.251a11 11 0 0 0-2.261 2.739 8.6 8.6 0 0 1 5.718-2.172c4.752 0 8.603 3.846 8.603 8.59 0 4.746-3.852 8.592-8.603 8.592zm11.69-9.43a.84.84 0 1 1 0 1.679.84.84 0 0 1 0-1.679m2.318 0a.84.84 0 1 1 .001 1.679.84.84 0 0 1-.001-1.679m2.318 0a.84.84 0 1 1 .001 1.679.84.84 0 0 1 0-1.679m-2.318-4.558a5.396 5.396 0 0 0-5.405 5.397 8.54 8.54 0 0 1-1.909 5.396A8.6 8.6 0 0 1 12.016 24a11.98 11.98 0 0 0 8.164-3.195c1.942 0 3.904.028 5.843 0a5.4 5.4 0 0 0 5.404-5.396 5.4 5.4 0 0 0-5.402-5.397" clip-rule="evenodd"/><path fill="#fff" d="M109.996 12.718q0-.7-.287-1.21a1.99 1.99 0 0 0-1.772-1.043q-.532 0-1.002.274a2 2 0 0 0-.756.79q-.287.518-.288 1.217 0 .7.288 1.217.287.52.756.791.47.273 1.002.273a1.94 1.94 0 0 0 1.015-.28 2.1 2.1 0 0 0 .757-.797q.287-.52.287-1.232m-4.105-2.729q.38-.531 1.044-.888.666-.357 1.521-.357.995 0 1.8.49.806.49 1.275 1.391.47.903.469 2.092 0 1.19-.469 2.105-.47.916-1.275 1.42a3.33 3.33 0 0 1-1.8.504q-.855 0-1.507-.35a3.2 3.2 0 0 1-1.058-.88v4.798h-1.961V8.87h1.961zm-5.394 2.728q0-.7-.287-1.21a1.99 1.99 0 0 0-1.772-1.042q-.534 0-1.003.274a2 2 0 0 0-.756.79q-.288.518-.288 1.217t.288 1.217q.286.52.756.791a1.96 1.96 0 0 0 1.002.273q.548 0 1.016-.28.47-.28.757-.797.287-.52.287-1.232M96.392 9.99q.378-.531 1.043-.888t1.52-.357q.996 0 1.801.49t1.275 1.391.469 2.092q0 1.19-.469 2.105-.47.916-1.275 1.42a3.33 3.33 0 0 1-1.8.504q-.855 0-1.506-.35a3.2 3.2 0 0 1-1.058-.88v4.798H94.43V8.87h1.962zm-6.53 3.204-1.414-4.085-1.415 4.085zm.533 1.567H86.5l-.644 1.861h-2.06l3.518-9.78h2.283l3.517 9.78h-2.073zm-9.331-1.987q0-.868-.35-1.51a2.46 2.46 0 0 0-.946-.987 2.6 2.6 0 0 0-1.31-.343q-.715 0-1.303.336-.589.336-.939.98t-.35 1.51q0 .882.35 1.533.351.65.939.993t1.303.342q.714 0 1.31-.342.596-.344.945-.993.35-.652.35-1.519m-6.5-.014q0-1.175.475-2.063a3.45 3.45 0 0 1 1.31-1.378 3.6 3.6 0 0 1 1.871-.49q.896.001 1.667.413.77.413 1.177 1.085V6.268h1.29v10.353h-1.29V15.18q-.377.685-1.12 1.126t-1.737.441q-1.021 0-1.857-.503a3.5 3.5 0 0 1-1.31-1.413q-.477-.91-.477-2.072m-1.682-3.805v7.667h-1.275v-1.133a2.5 2.5 0 0 1-1.016.916 3.15 3.15 0 0 1-1.436.33 3.44 3.44 0 0 1-1.611-.372 2.7 2.7 0 0 1-1.128-1.112q-.414-.742-.414-1.805v-4.49h1.261v4.323q0 1.133.574 1.741.575.609 1.57.608 1.023 0 1.611-.63t.588-1.833v-4.21zm-12.428 6.673a2.7 2.7 0 0 0 1.29-.321q.602-.321.973-.965t.371-1.568-.364-1.567q-.364-.643-.953-.958a2.66 2.66 0 0 0-1.275-.315q-.7 0-1.282.315a2.3 2.3 0 0 0-.932.958q-.35.644-.35 1.567 0 .937.343 1.582.344.643.918.958t1.262.314m0 1.12q-1.078 0-1.954-.49a3.5 3.5 0 0 1-1.374-1.392q-.498-.902-.497-2.092 0-1.175.511-2.077a3.53 3.53 0 0 1 1.394-1.386q.882-.482 1.976-.482 1.092 0 1.975.482a3.54 3.54 0 0 1 1.395 1.378q.51.896.511 2.085 0 1.19-.525 2.091a3.65 3.65 0 0 1-1.422 1.393 4.1 4.1 0 0 1-1.99.49m-5.52-10.48v10.354h-1.275V6.268zm-12.567 5.47q0-1.425.644-2.566a4.7 4.7 0 0 1 1.758-1.784 4.86 4.86 0 0 1 2.473-.644q1.598 0 2.789.77t1.737 2.182H50.24q-.405-.881-1.17-1.357-.763-.475-1.828-.475-1.024 0-1.835.475a3.33 3.33 0 0 0-1.275 1.35q-.463.874-.463 2.05 0 1.16.463 2.035a3.33 3.33 0 0 0 1.275 1.35q.812.476 1.835.476 1.065 0 1.828-.469.765-.468 1.17-1.35h1.528q-.546 1.4-1.737 2.162t-2.789.762q-1.358 0-2.473-.636a4.64 4.64 0 0 1-1.758-1.77q-.645-1.132-.645-2.56"/></g><defs><clipPath id="a"><path fill="#fff" d="M0 0h112v24H0z"/></clipPath></defs></svg>