<svg xmlns="http://www.w3.org/2000/svg" width="93" height="24" fill="none"><g clip-path="url(#a)"><mask id="b" width="12" height="7" x="1" y="3" maskUnits="userSpaceOnUse" style="mask-type:luminance"><path fill="#fff" d="m1.924 3.464 3.547 5.858h7.04L8.91 3.464z"/></mask><g mask="url(#b)"><path fill="#DCF247" d="m14.436 4.18-3.22 8.605L0 8.605 3.22 0z"/></g><mask id="c" width="12" height="7" x="1" y="9" maskUnits="userSpaceOnUse" style="mask-type:luminance"><path fill="#fff" d="M5.471 9.322 1.924 15.18H8.91l3.602-5.858z"/></mask><g mask="url(#c)"><path fill="#DCF247" d="m14.436 10.04-3.22 8.604L0 14.464l3.22-8.605z"/></g><mask id="d" width="12" height="7" x="12" y="9" maskUnits="userSpaceOnUse" style="mask-type:luminance"><path fill="#fff" d="m12.512 9.322 3.603 5.858h6.984l-3.547-5.858z"/></mask><g mask="url(#d)"><path fill="#DCF247" d="m25.024 10.04-3.22 8.604-11.216-4.18 3.22-8.605z"/></g><mask id="e" width="12" height="7" x="12" y="3" maskUnits="userSpaceOnUse" style="mask-type:luminance"><path fill="#fff" d="m16.115 3.464-3.603 5.858h7.04L23.1 3.464z"/></mask><g mask="url(#e)"><path fill="#DCF247" d="m25.024 4.182-3.22 8.604-11.216-4.18L13.808 0z"/></g><mask id="f" width="11" height="6" x="7" y="15" maskUnits="userSpaceOnUse" style="mask-type:luminance"><path fill="#fff" d="m12.513 20.823 4.856-4.846-9.715-.003z"/></mask><g mask="url(#f)"><path fill="#DCF247" d="M18.961 16.568 16.18 24 6.061 20.23l2.782-7.433z"/></g><mask id="g" width="15" height="14" x="23" y="3" maskUnits="userSpaceOnUse" style="mask-type:luminance"><path fill="#fff" d="M27.955 3.993a6.9 6.9 0 0 0-2.269 1.472 5.7 5.7 0 0 0-1.304 1.943 6.3 6.3 0 0 0-.444 2.39q0 2.647 1.735 4.366a6.8 6.8 0 0 0 2.262 1.464 7.6 7.6 0 0 0 2.83.52q1.61 0 2.957-.52a6.8 6.8 0 0 0 2.304-1.447q1.803-1.754 1.804-4.499v-.695h-7.577v2.315h4.87q-.249.546-.673 1.009t-.985.802a4.8 4.8 0 0 1-1.25.521 5.7 5.7 0 0 1-1.45.182 4.9 4.9 0 0 1-1.63-.264 4.6 4.6 0 0 1-1.326-.712q-1.47-1.157-1.47-3.043 0-.86.319-1.587.32-.728.902-1.265.584-.538 1.394-.844a5.1 5.1 0 0 1 1.797-.306q1.027 0 1.866.396.84.398 1.465 1.175l2.54-1.059a6 6 0 0 0-2.401-2.125q-1.472-.72-3.455-.72-1.5.003-2.811.531"/></mask><g mask="url(#g)"><path fill="#fff" d="M37.829 3.464h-13.89V16.15h13.89z"/></g><mask id="h" width="12" height="13" x="40" y="3" maskUnits="userSpaceOnUse" style="mask-type:luminance"><path fill="#fff" d="M40.27 3.828v11.975h11.282V13.52h-8.84v-2.646h5.87V8.59h-5.87V6.11h8.451V3.828z"/></mask><g mask="url(#h)"><path fill="#fff" d="M51.552 3.828H40.27v11.975h11.282z"/></g><mask id="i" width="15" height="13" x="52" y="3" maskUnits="userSpaceOnUse" style="mask-type:luminance"><path fill="#fff" d="m63.43 3.828-4.343 8.766-4.343-8.766H52.01l5.94 11.975h2.274l5.94-11.975z"/></mask><g mask="url(#i)"><path fill="#fff" d="M66.164 3.828H52.01v11.975h14.154z"/></g><mask id="j" width="15" height="13" x="64" y="3" maskUnits="userSpaceOnUse" style="mask-type:luminance"><path fill="#fff" d="m71.825 6.027 2.207 4.913h-4.413zM70.34 3.828l-5.343 11.975h2.47l1.152-2.58h6.439l1.152 2.58h2.47L73.35 3.828z"/></mask><g mask="url(#j)"><path fill="#fff" d="M78.68 3.828H64.997v11.975H78.68z"/></g><mask id="k" width="14" height="13" x="80" y="3" maskUnits="userSpaceOnUse" style="mask-type:luminance"><path fill="#fff" d="M82.621 6.11h4.454q.735 0 1.354.282.615.282 1.061.79.444.505.694 1.204.25.697.25 1.512a3.7 3.7 0 0 1-.625 2.077 3.5 3.5 0 0 1-1.2 1.13 3 3 0 0 1-1.52.415h-4.468zm-2.442-2.282v11.975h7.077q1.152 0 2.171-.397a5.4 5.4 0 0 0 1.783-1.125Q93 12.594 93 9.948q0-1.372-.423-2.506a5.4 5.4 0 0 0-1.215-1.935 5.4 5.4 0 0 0-1.915-1.24q-1.124-.438-2.525-.439z"/></mask><g mask="url(#k)"><path fill="#fff" d="M93 3.828H80.18v11.975H93z"/></g></g><defs><clipPath id="a"><path fill="#fff" d="M0 0h93v24H0z"/></clipPath></defs></svg>