<svg xmlns="http://www.w3.org/2000/svg" width="50" height="50" fill="none"><path fill="#6432FF" fill-rule="evenodd" d="M27.373 30.75a17 17 0 0 1-10.28 3.436C7.653 34.186 0 26.533 0 17.093S7.653 0 17.093 0c5.912 0 11.124 3.002 14.193 7.565a10.15 10.15 0 0 0-2.789 3.337h-.529c-2.16-3.775-6.228-6.328-10.875-6.328-6.895 0-12.52 5.624-12.52 12.52 0 6.897 5.625 12.519 12.52 12.519 5.282 0 9.816-3.297 11.65-7.94.857 1.457 2.034 2.658 3.42 3.493q-.624 1.16-1.412 2.207l4.099 4.099a2.2 2.2 0 0 1 2.65.346L49.36 43.68c.853.85.853 2.247 0 3.1l-2.58 2.581a2.197 2.197 0 0 1-3.1 0L31.817 37.5a2.2 2.2 0 0 1-.347-2.65zm9.4-23.617c4.461 0 8.077 4 8.077 8.934S41.234 25 36.773 25c-3.264 0-6.077-2.142-7.35-5.227h-3.218l-2.087 2.288-2.135-2.815-1.988 2.539-1.923-2.012h-1.868l-3.42-3.706 3.42-3.707h13.22c1.272-3.085 4.085-5.227 7.35-5.227m3.18 7.064c-1.075 0-1.947.837-1.946 1.87 0 1.032.871 1.87 1.946 1.87s1.947-.838 1.946-1.87c.001-1.033-.87-1.87-1.946-1.87" clip-rule="evenodd"/></svg>