<svg xmlns="http://www.w3.org/2000/svg" width="50" height="50" fill="none"><g fill="#6432FF" clip-path="url(#a)"><path d="M46.143 3.857C41-1.286 32.634-1.286 27.49 3.857l-7.663 7.663c-1.337 1.337-2.42 3.043-3.119 5.126l-.034.014c-1.589 4.778-.384 9.974 3.153 13.511a13.2 13.2 0 0 0 3.648 2.57l.497-.498a4.39 4.39 0 0 0 0-6.217 7.33 7.33 0 0 1 0-10.361L31.636 8a7.33 7.33 0 0 1 10.362 0 7.33 7.33 0 0 1 0 10.362l-5.818 5.819c.775 2.399.94 4.94.564 7.412.613-.428 1.203-.89 1.736-1.423l7.663-7.663c5.142-5.142 5.142-13.509 0-18.651"/><path d="M30.19 19.81a12.5 12.5 0 0 0-3.668-2.55l-.476.477a4.39 4.39 0 0 0 0 6.217 7.33 7.33 0 0 1 0 10.362l-7.682 7.682a7.33 7.33 0 0 1-10.362 0 7.33 7.33 0 0 1 0-10.361l5.837-5.838c-.775-2.4-.94-4.94-.564-7.412-.613.427-1.203.89-1.736 1.422l-7.682 7.683c-5.142 5.142-5.142 13.509 0 18.651 5.143 5.143 13.509 5.143 18.652 0l7.682-7.682c1.337-1.338 2.42-3.044 3.119-5.126l.034-.014c1.589-4.778.384-9.974-3.154-13.512M42.625 40.533l-2.073-2.073a1.465 1.465 0 1 0-2.072 2.073l2.072 2.072a1.465 1.465 0 1 0 2.073-2.072M11.54 9.447 9.466 7.375a1.464 1.464 0 1 0-2.073 2.072l2.073 2.073a1.464 1.464 0 1 0 2.072-2.073M48.036 29.643l-2.831-.76a1.465 1.465 0 1 0-.759 2.832l2.832.76a1.465 1.465 0 1 0 .758-2.832M5.573 18.265l-2.831-.759a1.465 1.465 0 1 0-.76 2.832l2.832.759a1.465 1.465 0 1 0 .759-2.832M32.493 47.258l-.759-2.831a1.465 1.465 0 1 0-2.831.759l.76 2.83a1.466 1.466 0 0 0 2.83-.758M21.116 4.795l-.76-2.831a1.465 1.465 0 1 0-2.831.759l.76 2.83a1.467 1.467 0 0 0 2.831-.759"/></g><defs><clipPath id="a"><path fill="#fff" d="M0 0h50v50H0z"/></clipPath></defs></svg>