<svg xmlns="http://www.w3.org/2000/svg" width="29" height="24" fill="none"><path fill="#fff" d="M12.296 18.318h-1.062v-1.1H6.176v4.253a2.53 2.53 0 0 0 2.53 2.53 2.53 2.53 0 0 0 2.528-2.53v-1.467h1.062c.463 0 .843-.38.843-.843a.847.847 0 0 0-.843-.843M0 11.015a2.88 2.88 0 0 0 2.56 2.86v-5.72A2.88 2.88 0 0 0 0 11.014M26.167 8.224v5.58c.37-.029 1.14-.165 1.786-.81.802-.802.82-1.794.82-1.98a2.8 2.8 0 0 0-2.606-2.79M11.52 6.497H5.09a.843.843 0 0 0-.843.843v7.35c0 .465.378.843.843.843h6.43zM23.905.038a.81.81 0 0 0-.917.327c-.034.052-2.756 4.86-9.783 6.005v9.29c4.452.614 8.235 3.927 9.783 6.004.446.667 1.493.33 1.493-.477V.843a.84.84 0 0 0-.576-.805"/></svg>