<svg xmlns="http://www.w3.org/2000/svg" width="50" height="50" fill="none"><path fill="#6432FF" d="M32.994 40.152a2.537 2.537 0 0 1 .001-3.581L36.567 33a2.535 2.535 0 0 1 3.581-.002l.6.598-7.155 7.155zm15.517 1.2-6.569-6.562-7.156 7.156 6.562 6.57a5.065 5.065 0 1 0 7.163-7.164m-9.668-21.93A19.421 19.421 0 1 1 19.42 0a19.444 19.444 0 0 1 19.422 19.421m-3.378 0a16.044 16.044 0 1 0-16.044 16.043 16.06 16.06 0 0 0 16.044-16.044m-4.222-.845v1.689a1.69 1.69 0 0 1-1.689 1.689H28.36a9.2 9.2 0 0 1-.83 1.993l.848.848a1.696 1.696 0 0 1 0 2.387l-1.194 1.195a1.69 1.69 0 0 1-2.389 0l-.847-.847a9.2 9.2 0 0 1-1.993.829v1.194a1.69 1.69 0 0 1-1.69 1.69h-1.688a1.69 1.69 0 0 1-1.689-1.69V28.36a9.2 9.2 0 0 1-1.993-.83l-.848.848a1.73 1.73 0 0 1-2.388 0l-1.194-1.194a1.696 1.696 0 0 1 0-2.389l.847-.847a9.2 9.2 0 0 1-.829-1.993H9.29a1.69 1.69 0 0 1-1.69-1.69v-1.688a1.69 1.69 0 0 1 1.69-1.689h1.194a9.2 9.2 0 0 1 .83-1.993l-.848-.848a1.696 1.696 0 0 1 0-2.388l1.194-1.194a1.73 1.73 0 0 1 2.389 0l.847.847a9.2 9.2 0 0 1 1.993-.829V9.29a1.69 1.69 0 0 1 1.689-1.69h1.689a1.69 1.69 0 0 1 1.689 1.69v1.194a9.2 9.2 0 0 1 1.993.83l.847-.848a1.69 1.69 0 0 1 2.388 0l1.195 1.194a1.696 1.696 0 0 1 0 2.389l-.847.847c.353.63.632 1.298.829 1.993h1.194a1.69 1.69 0 0 1 1.69 1.689m-6.755.844a5.067 5.067 0 1 0-5.067 5.067 5.07 5.07 0 0 0 5.067-5.067"/></svg>