<svg xmlns="http://www.w3.org/2000/svg" width="27" height="27" fill="none"><g fill="#fff" clip-path="url(#a)"><path d="M21.92 16.74c-2.227 2.226-4.797 4.01-7.44 5.165l.34 3.544a.79.79 0 0 0 1.346.484l5.11-5.109a6.1 6.1 0 0 0 1.717-5.223q-.517.583-1.074 1.138M16.731 10.264c.189.19.44.293.707.293a1.002 1.002 0 1 0-.707-1.708c-.39.39-.39 1.025 0 1.415M26.816.804A.79.79 0 0 0 26.19.18c-2.03-.396-4.337-.126-6.674.71l6.588 6.59c.837-2.338 1.107-4.644.71-6.675M7.39 11.435q-.513.921-.914 1.86a2.54 2.54 0 0 0 .548 2.841l3.835 3.835a2.54 2.54 0 0 0 2.84.549 20 20 0 0 0 1.862-.914z"/><path d="M11.375 6.194a24.4 24.4 0 0 0-3.142 3.846l8.721 8.722a24.4 24.4 0 0 0 3.847-3.142c2.008-2.008 3.59-4.271 4.653-6.557L17.932 1.54c-2.286 1.062-4.549 2.644-6.557 4.653m7.89 5.188a2.57 2.57 0 0 1-1.826.756c-.69 0-1.338-.269-1.826-.756a2.585 2.585 0 0 1 0-3.652 2.585 2.585 0 0 1 3.652 0 2.585 2.585 0 0 1 0 3.652M7.73 19.275a.79.79 0 0 0-1.118 0L.237 25.65a.79.79 0 1 0 1.118 1.119l6.375-6.376a.79.79 0 0 0 0-1.118M4.079 16.741l-2.154 2.154a.79.79 0 0 0 1.119 1.118l2.153-2.153A.79.79 0 1 0 4.08 16.74M9.146 21.808 6.992 23.96a.79.79 0 1 0 1.119 1.119l2.153-2.154a.79.79 0 1 0-1.118-1.118M1.556 12.185l3.53.34c1.156-2.647 2.941-5.22 5.17-7.449q.555-.553 1.13-1.066a6 6 0 0 0-.888-.064A6.06 6.06 0 0 0 6.181 5.73L1.072 10.84a.79.79 0 0 0 .484 1.346"/></g><defs><clipPath id="a"><path fill="#fff" d="M0 0h27v27H0z"/></clipPath></defs></svg>