<svg xmlns="http://www.w3.org/2000/svg" width="50" height="42" fill="none"><path fill="#6432FF" fill-rule="evenodd" d="M6.98 25.59h5.752v9.448H6.981zM4.297 4.02h1.565c.332 0 .517-.38.313-.641L3.755.303a.796.796 0 0 0-1.25 0L.085 3.38c-.204.26-.019.64.313.64h1.565v34.86c0 .642.522 1.163 1.167 1.163h42.84v1.56c0 .332.38.517.642.313l3.084-2.413a.79.79 0 0 0 0-1.247l-3.084-2.412a.397.397 0 0 0-.642.312v1.56H4.296zM8.464 18.46c12.692-4.5 17.334-10.022 18.993-13.027l-1.516-.65a.545.545 0 0 1-.05-.98l5.831-3.23a.548.548 0 0 1 .797.341l1.663 6.443a.547.547 0 0 1-.747.638l-1.822-.781c-4.13 5.224-10.88 11.163-23.15 11.246m34.865-5.582v22.159h-5.752v-22.16h-1.636a.654.654 0 0 1-.516-1.058l3.995-5.08a1.315 1.315 0 0 1 2.066 0l3.995 5.08a.654.654 0 0 1-.517 1.059zm-15.95 4.237h5.75v17.922h-5.75zm-10.2 4.237h5.752v13.685H17.18z" clip-rule="evenodd"/></svg>