<svg xmlns="http://www.w3.org/2000/svg" width="27" height="27" fill="none"><g fill="#fff" clip-path="url(#a)"><path d="M26.957.58A.78.78 0 0 0 26.21 0h-3.164a.79.79 0 1 0 0 1.582h1.85l-3.778 4.265C16.024 11.608 8.53 14.653.86 13.987a.79.79 0 1 0-.136 1.576c.74.064 1.364.095 2.102.095 7.392 0 14.545-3.185 19.477-8.764l3.116-3.516v.577a.79.79 0 1 0 1.582 0V1.572z"/><path d="M26.209 25.418h-.844V7.634a.792.792 0 0 0-1.396-.51l-.486.577a27 27 0 0 1-2.602 2.692.8.8 0 0 0-.262.587v14.438h-1.582v-11.97a.793.793 0 0 0-1.232-.656 28 28 0 0 1-3.077 1.792.79.79 0 0 0-.437.708v10.126h-1.582V16.64a.792.792 0 0 0-1.057-.744 28 28 0 0 1-3.077.9.79.79 0 0 0-.612.771v7.851H6.38v-7.305a.792.792 0 0 0-.88-.786c-1.016.116-2.05.175-3.076.177a.79.79 0 0 0-.79.791v7.123H.79a.79.79 0 1 0 0 1.582h25.418a.79.79 0 1 0 0-1.582"/></g><defs><clipPath id="a"><path fill="#fff" d="M0 0h27v27H0z"/></clipPath></defs></svg>