<svg xmlns="http://www.w3.org/2000/svg" width="50" height="50" fill="none"><path fill="#6432FF" fill-rule="evenodd" d="M25 13.178a5.816 5.816 0 0 1 5.816 5.816c0 3.109-1.838 3.065-2.492 6.762l-.11-.003h-2.53v-5.284l2.152-1.243a.682.682 0 0 0-.684-1.18L25 19.29l-2.154-1.244a.68.68 0 0 0-.678 1.18l2.15 1.241v5.286h-2.53q-.056 0-.11.003c-.655-3.698-2.493-3.653-2.493-6.762A5.816 5.816 0 0 1 25 13.178m21.493 8.119a1.95 1.95 0 0 1-1.822-1.262h-2.46l.007 3.94h-1.362l-.008-4.624c0-.376.305-.68.68-.68l3.143-.003a1.946 1.946 0 1 1 1.822 2.629M18.106 5.443a.684.684 0 0 1-.966-.966A11.1 11.1 0 0 1 25 1.22c2.95 0 5.774 1.17 7.86 3.256a.684.684 0 0 1-.966.967A9.7 9.7 0 0 0 25 2.588a9.7 9.7 0 0 0-6.894 2.855m4.654 4.654a.684.684 0 0 1-.966-.966A4.52 4.52 0 0 1 25 7.802a4.55 4.55 0 0 1 3.207 1.329.684.684 0 0 1-.967.966A3.13 3.13 0 0 0 25 9.17c-.875 0-1.666.355-2.24.928m7.774-3.293a7.83 7.83 0 0 0-11.067 0 .684.684 0 0 0 .966.966A6.4 6.4 0 0 1 25 5.88c1.727 0 3.346.67 4.567 1.891a.684.684 0 0 0 .967-.966M3.508 21.297c.833 0 1.545-.525 1.821-1.262h2.46l-.007 3.94h1.362l.008-4.624a.68.68 0 0 0-.68-.68l-3.143-.003a1.946 1.946 0 1 0-1.821 2.629m43.39 7.928c.85 0 1.54-.69 1.54-1.54v-2.148a.196.196 0 0 0-.196-.195H36.648a.196.196 0 0 0-.196.192C36.35 31.771 31.262 36.795 25 36.795s-11.35-5.024-11.452-11.26a.195.195 0 0 0-.195-.193c-1.128 0-11.79-.212-11.79.195v2.149c0 .85.689 1.54 1.54 1.54 4.615 0 6.93 5.59 3.667 8.854a1.54 1.54 0 0 0 0 2.178l3.315 3.314a1.54 1.54 0 0 0 2.177 0c3.267-3.268 8.855-.953 8.855 3.668 0 .85.69 1.54 1.54 1.54h4.687c.85 0 1.54-.69 1.54-1.54 0-4.616 5.59-6.931 8.854-3.668a1.54 1.54 0 0 0 2.178 0l3.314-3.315a1.54 1.54 0 0 0 0-2.177c-3.263-3.263-.947-8.855 3.668-8.855M21.786 27.12h6.428c.529 0 .961.433.961.962v2.075a.964.964 0 0 1-.961.961h-.988v.964a.91.91 0 0 1-.907.907h-2.637a.91.91 0 0 1-.907-.907v-.964h-.989a.964.964 0 0 1-.961-.961v-2.075c0-.53.433-.962.961-.962" clip-rule="evenodd"/></svg>